<?xml version="1.0" encoding="UTF-8"?>
<svg version="1.1" xmlns="http://www.w3.org/2000/svg" width="827" height="827">
<path d="M0 0 C1.18305725 -0.00151062 1.18305725 -0.00151062 2.39001465 -0.00305176 C89.58669488 0.07107654 170.24311215 28.45991927 232.6875 90.25 C238.37451564 95.95082653 243.56913826 101.87717197 248.5 108.25 C249.49280673 109.49143182 250.48634783 110.73227657 251.48046875 111.97265625 C285.77820874 155.24225279 314.67131824 219.02672447 313.5 275.25 C312.88181396 275.23428955 312.26362793 275.2185791 311.62670898 275.20239258 C288.28580691 274.68900104 269.25084717 277.83214915 249.953125 291.55078125 C245.69969505 294.49702652 245.69969505 294.49702652 243.5 295.25 C240.96411133 294.42651367 240.96411133 294.42651367 238.08203125 292.91796875 C237.0058252 292.37108398 235.92961914 291.82419922 234.82080078 291.26074219 C233.66306152 290.65907227 232.50532227 290.05740234 231.3125 289.4375 C218.37920391 282.92842416 205.26982133 277.75998353 191.5 273.25 C190.37932129 272.8792334 189.25864258 272.5084668 188.10400391 272.12646484 C130.70557369 253.28269429 70.70900841 243.07103739 10.5 239.25 C10.62117188 238.62246826 10.74234375 237.99493652 10.8671875 237.34838867 C16.4559735 207.84873413 16.24171648 181.11966677 -0.88793945 155.28369141 C-22.64975228 123.79600478 -56.90509431 103.27882837 -94.4375 96.3125 C-134.04128067 89.68994088 -173.55092355 99.96429551 -206.671875 122.3984375 C-209.68471556 124.60625982 -212.60042004 126.89551079 -215.5 129.25 C-216.05397461 129.69182617 -216.60794922 130.13365234 -217.17871094 130.58886719 C-256.04331441 161.7369069 -275.78736796 211.90042828 -287.84985352 258.85742188 C-288.15463623 260.02466797 -288.45941895 261.19191406 -288.7734375 262.39453125 C-289.03560059 263.42940674 -289.29776367 264.46428223 -289.56787109 265.53051758 C-290.52436996 268.32109927 -291.49542991 270.09702356 -293.5 272.25 C-296.20716242 273.15238747 -297.73776768 273.36851302 -300.51171875 273.34765625 C-301.26904297 273.34443359 -302.02636719 273.34121094 -302.80664062 273.33789062 C-303.59232422 273.32951172 -304.37800781 273.32113281 -305.1875 273.3125 C-305.98478516 273.30798828 -306.78207031 273.30347656 -307.60351562 273.29882812 C-309.56904257 273.2870585 -311.53453085 273.26912348 -313.5 273.25 C-312.39683468 218.99432387 -288.17757048 160.04236182 -255.5 117.25 C-255.06478027 116.6734668 -254.62956055 116.09693359 -254.18115234 115.50292969 C-240.00386341 96.78013357 -223.37911073 78.3276325 -204.5 64.25 C-203.56631592 63.54230469 -203.56631592 63.54230469 -202.61376953 62.8203125 C-157.93584843 29.06785906 -105.61906651 10.12328918 -50.3125 3.0625 C-49.00627686 2.89524414 -47.70005371 2.72798828 -46.35424805 2.55566406 C-30.93203564 0.68138654 -15.52872293 0.01406362 0 0 Z " fill="#3A527C" transform="translate(411.5,116.75)"/>
<path d="M0 0 C0 40.59 0 81.18 0 123 C-18.48 123 -36.96 123 -56 123 C-56.72747209 135.1961638 -56.72747209 135.1961638 -51.640625 145.5234375 C-46.58439249 150.03234588 -41.80629239 151.22386107 -35.1875 151.625 C-33.44533203 151.73714844 -33.44533203 151.73714844 -31.66796875 151.8515625 C-30.34732422 151.92503906 -30.34732422 151.92503906 -29 152 C-28.76925781 152.67546875 -28.53851563 153.3509375 -28.30078125 154.046875 C-25.70080021 161.16886966 -25.70080021 161.16886966 -20 166 C-13.64390057 168.11869981 -6.68835552 167.60656732 0 168 C0 179.55 0 191.1 0 203 C-123.75 203 -247.5 203 -375 203 C-375 76.81101896 -375 76.81101896 -352.25 52.875 C-338.63484123 39.60947521 -320.89654587 33.11554239 -302 32.625 C-281.8249753 33.17027094 -263.04657751 40.81875644 -248.6875 55.0625 C-247.800625 56.031875 -246.91375 57.00125 -246 58 C-241.45456973 56.64865587 -237.69270741 54.80016522 -233.625 52.375 C-180.20337518 21.28519122 -116.26674023 8.94703203 -55.4375 2.75 C-54.62328583 2.66700653 -53.80907166 2.58401306 -52.97018433 2.49850464 C-47.64987049 1.96227586 -42.32693618 1.46563095 -37 1 C-35.77555176 0.89107422 -34.55110352 0.78214844 -33.28955078 0.66992188 C-22.11678682 -0.20493384 -11.31762506 0 0 0 Z M-338 73 C-347.55418834 85.17476571 -350.90312274 97.72901554 -350 113 C-347.88625815 125.81560018 -341.71169503 136.91245291 -331.49609375 144.9765625 C-320.27993054 152.64992016 -308.4962007 155.38094037 -295 154 C-281.93059836 151.50143792 -270.69862217 144.94698595 -263 134 C-255.55533924 121.96495553 -252.54079403 110.11952987 -255.2421875 96.03125 C-258.62173478 82.51306087 -265.86599985 71.49257875 -277.9296875 64.23828125 C-298.50560855 53.42676039 -321.30102897 56.73689118 -338 73 Z " fill="#F74241" transform="translate(403,374)"/>
<path d="M0 0 C39.63095453 2.33123262 39.63095453 2.33123262 54.3125 4.3125 C56.01057309 4.53496048 57.70865269 4.75737132 59.40673828 4.97973633 C64.27520978 5.62533648 69.13841102 6.30462862 74 7 C75.93770264 7.27602051 75.93770264 7.27602051 77.91455078 7.55761719 C108.28649044 12.02808906 138.89563435 19.23054822 168 29 C168.93183105 29.30615234 169.86366211 29.61230469 170.82373047 29.92773438 C193.63826806 37.44490533 218.19216231 46.10589876 238 60 C241.22701204 58.60186349 243.10495065 56.98288368 245.4375 54.375 C258.49315631 41.02867973 277.64352043 34.26862189 296.04101562 33.64648438 C316.31912083 33.43096828 334.97334733 40.88493126 349.69140625 54.73046875 C350.83416016 55.85388672 350.83416016 55.85388672 352 57 C352.62777344 57.61488281 353.25554687 58.22976563 353.90234375 58.86328125 C388.0956023 95.07246888 373 167.05645981 373 204 C249.91 204 126.82 204 0 204 C0 192.45 0 180.9 0 169 C3.63 169 7.26 169 11 169 C17.50563932 168.07062295 21.47511091 167.06356636 26 162 C27.30070507 159.06355976 28.2265716 156.11406697 29 153 C30.00160156 152.90203125 31.00320313 152.8040625 32.03515625 152.703125 C43.96220201 151.47583005 43.96220201 151.47583005 53.3125 144.375 C56.35813842 138.28372316 57.35756741 131.79378077 57 125 C39.99542545 116.49771273 19.00855066 123.34561001 0 123 C0 82.41 0 41.82 0 0 Z M260.296875 75.08984375 C251.50792557 86.22550247 247.84540371 98.92835778 249 113 C251.46917096 127.12057144 258.64746916 139.06981013 270.4375 147.375 C282.26311845 154.69858476 295.00312546 156.88518647 308.625 154.31640625 C315.59868275 152.33449877 321.29846282 149.45432593 327 145 C327.82371094 144.38382813 328.64742187 143.76765625 329.49609375 143.1328125 C337.73373745 136.11603643 344.22061599 124.91077804 345.17700195 113.97631836 C345.64287617 97.73382737 343.24156955 85.27236 331.96875 72.7421875 C320.98425269 62.27507593 308.32786208 58.48293646 293.48828125 58.75390625 C280.40230008 59.67710537 269.2596803 65.62751904 260.296875 75.08984375 Z " fill="#F74241" transform="translate(421,373)"/>
<path d="M0 0 C11.0804199 8.28979563 18.18870049 19.4098474 20.53515625 33.12890625 C22.09399924 48.01854442 18.72751374 60.4196798 10.1484375 72.63671875 C2.08619537 82.40762537 -9.3883912 88.83144453 -22.02636719 90.22314453 C-36.5598514 91.28991431 -49.38286814 88.14849134 -61 79 C-70.81238288 70.14159879 -76.45879539 58.38743996 -77.21484375 45.2734375 C-77.68703411 30.73101586 -74.04128239 19.80301148 -65.8125 7.8125 C-47.9870582 -10.0129418 -21.56056287 -13.61541057 0 0 Z " fill="#3A527C" transform="translate(267,280)"/>
<path d="M0 0 C11.7871875 -0.0928125 11.7871875 -0.0928125 23.8125 -0.1875 C27.49950073 -0.22846802 27.49950073 -0.22846802 31.26098633 -0.27026367 C33.24299633 -0.27903817 35.2250118 -0.28667982 37.20703125 -0.29296875 C38.70961487 -0.3159906 38.70961487 -0.3159906 40.24255371 -0.33947754 C48.14490699 -0.34236126 56.86851301 0.37961315 63.5 5.125 C67.42641304 9.640375 69.10696051 13.78672815 68.90625 19.81640625 C68.03337577 25.98527699 66.51281411 29.70732316 62 34 C61.01 34.66 60.02 35.32 59 36 C59.53109375 36.29132812 60.0621875 36.58265625 60.609375 36.8828125 C66.36835599 40.22470293 69.83319546 43.49958638 72 50 C72.57060449 56.27664941 72.29610875 61.47104339 69 67 C63.13554901 73.73855615 55.60831195 75.85016401 47 77 C43.37711668 77.1344316 39.75775512 77.11650061 36.1328125 77.09765625 C35.21491943 77.09664917 34.29702637 77.09564209 33.35131836 77.09460449 C29.94253275 77.08939659 26.53376504 77.0754354 23.125 77.0625 C15.49375 77.041875 7.8625 77.02125 0 77 C0 51.59 0 26.18 0 0 Z M22 15 C22 19.95 22 24.9 22 30 C25.06303578 30.08115993 28.12390815 30.14057409 31.1875 30.1875 C32.05181641 30.21263672 32.91613281 30.23777344 33.80664062 30.26367188 C38.72698209 30.32022752 41.98693063 30.19276261 46 27 C47.38142556 25.83622098 47.38142556 25.83622098 47.25 22.625 C47.31008684 19.12920285 47.31008684 19.12920285 45.75 17.125 C42.57086068 15.08126758 39.38307806 14.87583516 35.671875 14.90234375 C34.47304687 14.90717773 34.47304687 14.90717773 33.25 14.91210938 C32.0125 14.92467773 32.0125 14.92467773 30.75 14.9375 C29.90953125 14.94201172 29.0690625 14.94652344 28.203125 14.95117188 C26.13538599 14.96292039 24.06768376 14.98085478 22 15 Z M22 45 C22 50.28 22 55.56 22 61 C25.54213083 61.08118636 29.08238743 61.14059277 32.625 61.1875 C33.62402344 61.21263672 34.62304688 61.23777344 35.65234375 61.26367188 C41.17275321 61.31851038 45.28054692 61.23776432 50 58 C51.42041821 55.15916359 51.31452272 53.14522722 51 50 C48.61753798 46.85174661 46.81212164 45.70351907 43 45 C41.34010718 44.92088457 39.6773713 44.89221115 38.015625 44.90234375 C37.08105469 44.90556641 36.14648438 44.90878906 35.18359375 44.91210938 C34.21550781 44.92048828 33.24742187 44.92886719 32.25 44.9375 C30.77466797 44.94426758 30.77466797 44.94426758 29.26953125 44.95117188 C26.84632806 44.962935 24.42315623 44.98086982 22 45 Z " fill="#F74241" transform="translate(197,604)"/>
<path d="M0 0 C18 0 18 0 24.0625 5.3125 C25.58081055 7.10742188 25.58081055 7.10742188 26.63671875 8.65625 C28.75333484 11.6625827 31.01549983 14.4896025 33.375 17.3125 C34.08398438 18.19421875 34.79296875 19.0759375 35.5234375 19.984375 C39.16870447 24.42309124 42.95514192 28.73682389 46.74755859 33.05004883 C47.28461426 33.66388428 47.82166992 34.27771973 48.375 34.91015625 C48.85710937 35.45808838 49.33921875 36.00602051 49.8359375 36.57055664 C51 38 51 38 52 40 C52.33 26.8 52.66 13.6 53 0 C59.93 0 66.86 0 74 0 C74 25.41 74 50.82 74 77 C56 77 56 77 49.5625 70.8125 C47.91479492 68.73217773 47.91479492 68.73217773 46.73046875 66.93359375 C44.17000172 63.19038686 41.35086455 59.79150133 38.375 56.375 C37.47845352 55.31550409 36.58390756 54.25431198 35.69140625 53.19140625 C33.83260907 50.98361598 31.96389557 48.78469615 30.08984375 46.58984375 C29.16387613 45.4975538 28.23808813 44.40511155 27.3125 43.3125 C26.48363281 42.33925781 25.65476562 41.36601563 24.80078125 40.36328125 C23 38 23 38 23 36 C22.34 36 21.68 36 21 36 C21.33 36.66 21.66 37.32 22 38 C22.09907245 40.8325373 22.1398245 43.63996624 22.1328125 46.47265625 C22.13424759 47.73002846 22.13424759 47.73002846 22.13571167 49.01280212 C22.1363926 50.78563512 22.13454434 52.55847061 22.13037109 54.33129883 C22.12501493 57.05490677 22.13032243 59.77835029 22.13671875 62.50195312 C22.13605808 64.22135453 22.13477716 65.94075584 22.1328125 67.66015625 C22.13483673 68.47992447 22.13686096 69.29969269 22.13894653 70.14430237 C22.11495507 75.88504493 22.11495507 75.88504493 21 77 C14.07 77 7.14 77 0 77 C0 51.59 0 26.18 0 0 Z " fill="#F74241" transform="translate(368,604)"/>
<path d="M0 0 C7.59 0 15.18 0 23 0 C24.06476563 2.4440625 25.12953125 4.888125 26.2265625 7.40625 C26.92958084 9.01962365 27.63262148 10.63298757 28.33569336 12.24633789 C29.87071321 15.76880841 31.40530786 19.2914638 32.93969727 22.81420898 C36.67289359 31.38281951 40.4123776 39.94851486 44.17578125 48.50390625 C44.81887654 49.96743523 45.46194369 51.43097657 46.10498047 52.89453125 C47.01340639 54.96197097 47.92270518 57.02900062 48.83502197 59.09472656 C49.67228218 60.99052497 50.50635028 62.88769944 51.33984375 64.78515625 C51.80769287 65.84613525 52.27554199 66.90711426 52.75756836 68.00024414 C53.97773188 70.94623534 54.99165169 73.97495507 56 77 C48.74 77 41.48 77 34 77 C32.02 72.38 30.04 67.76 28 63 C17.11 62.67 6.22 62.34 -5 62 C-5.99 64.97 -6.98 67.94 -8 71 C-8.99 72.98 -9.98 74.96 -11 77 C-18.26 77 -25.52 77 -33 77 C-27.89043181 64.44661203 -22.54460158 52.01951754 -17.0625 39.625 C-11.24619573 26.46781286 -5.55003588 13.27209946 0 0 Z M11 22 C9.4943349 25.62267294 7.99643454 29.24850549 6.5 32.875 C6.07074219 33.90753906 5.64148438 34.94007813 5.19921875 36.00390625 C4.79316406 36.99003906 4.38710938 37.97617187 3.96875 38.9921875 C3.59169922 39.90339355 3.21464844 40.81459961 2.82617188 41.75341797 C1.88495081 43.91390327 1.88495081 43.91390327 2 46 C8.27 46 14.54 46 21 46 C18.7183577 37.63397824 15.51779922 29.90081767 12 22 C11.67 22 11.34 22 11 22 Z " fill="#F74241" transform="translate(305,604)"/>
<path d="M0 0 C0.87454834 0.00523682 1.74909668 0.01047363 2.65014648 0.01586914 C3.59438477 0.0190918 4.53862305 0.02231445 5.51147461 0.02563477 C6.50469727 0.03401367 7.49791992 0.04239258 8.52124023 0.05102539 C9.51833008 0.05553711 10.51541992 0.06004883 11.54272461 0.06469727 C14.01478872 0.07652532 16.48673541 0.0930069 18.95874023 0.11352539 C23.65073338 9.27851145 27.98237779 18.51394421 32.02124023 27.98852539 C33.13935615 30.59471494 34.2601744 33.19974093 35.38061523 35.80493164 C35.66737625 36.4728624 35.95413727 37.14079315 36.24958801 37.82896423 C38.4474325 42.94306316 40.67360971 48.04433948 42.91186523 53.14086914 C43.23589828 53.87899841 43.55993134 54.61712769 43.89378357 55.37762451 C45.16721402 58.27737893 46.44119937 61.17688317 47.7180481 64.07513428 C48.5980105 66.07292925 49.47581967 68.07165803 50.35327148 70.07055664 C50.85705322 71.21500244 51.36083496 72.35944824 51.87988281 73.53857422 C52.95874023 76.11352539 52.95874023 76.11352539 52.95874023 77.11352539 C45.69874023 77.11352539 38.43874023 77.11352539 30.95874023 77.11352539 C29.68920898 74.05362956 28.41967773 70.99373372 27.15014648 67.93383789 C26.4633056 66.30793915 25.74808137 64.69220765 24.95874023 63.11352539 C14.06874023 62.78352539 3.17874023 62.45352539 -8.04125977 62.11352539 C-9.03125977 65.41352539 -10.02125977 68.71352539 -11.04125977 72.11352539 C-12.02954102 75.21899414 -12.02954102 75.21899414 -14.04125977 77.11352539 C-17.78766732 77.72240616 -21.44656461 77.58074074 -25.22875977 77.42602539 C-26.78240234 77.3921875 -26.78240234 77.3921875 -28.36743164 77.35766602 C-30.9268238 77.29869385 -33.48331928 77.21645106 -36.04125977 77.11352539 C-32.72938292 68.22869122 -29.09407247 59.55453511 -25.16625977 50.92602539 C-24.02615218 48.40743485 -22.88894816 45.88753872 -21.75219727 43.36743164 C-21.45680054 42.71322235 -21.16140381 42.05901306 -20.85705566 41.38497925 C-18.50670171 36.17041575 -16.19367082 30.93994326 -13.89282227 25.70336914 C-13.5497403 24.92286697 -13.20665833 24.14236481 -12.85317993 23.33821106 C-11.49538215 20.24775337 -10.13836092 17.15696717 -8.78546143 14.06436157 C-7.84661188 11.9184406 -6.90507192 9.77371744 -5.96313477 7.62915039 C-5.6814444 6.98264023 -5.39975403 6.33613007 -5.10952759 5.67002869 C-2.68040289 0.14907156 -2.68040289 0.14907156 0 0 Z M7.95874023 23.11352539 C6.45288501 26.56933854 4.95505734 30.02857292 3.45874023 33.48852539 C3.02948242 34.47336914 2.60022461 35.45821289 2.15795898 36.47290039 C1.54887695 37.88442383 1.54887695 37.88442383 0.92749023 39.32446289 C0.36191406 40.62843018 0.36191406 40.62843018 -0.21508789 41.95874023 C-1.16059329 44.04014269 -1.16059329 44.04014269 -1.04125977 46.11352539 C5.22874023 46.11352539 11.49874023 46.11352539 17.95874023 46.11352539 C16.04533059 40.37329647 14.17263209 35.04754453 11.77124023 29.55102539 C11.49860352 28.92389648 11.2259668 28.29676758 10.94506836 27.65063477 C10.2863671 26.13677749 9.62306698 24.62492249 8.95874023 23.11352539 C8.62874023 23.11352539 8.29874023 23.11352539 7.95874023 23.11352539 Z " fill="#F74241" transform="translate(551.041259765625,603.886474609375)"/>
<path d="M0 0 C6.93 0 13.86 0 21 0 C21.03738281 3.21621094 21.07476562 6.43242188 21.11328125 9.74609375 C21.15957968 12.88377426 21.21078311 16.0213394 21.26245117 19.15893555 C21.29556998 21.32845973 21.32364193 23.49806738 21.34643555 25.66772461 C21.38022212 28.79837389 21.43254978 31.92826726 21.48828125 35.05859375 C21.49467117 36.01833603 21.5010611 36.97807831 21.50764465 37.96690369 C21.66288445 45.18434966 22.26937056 52.26937056 27.5625 57.5625 C33.08838916 59.87332638 38.29482148 59.97846882 43.9375 57.9375 C48.17654295 53.95536875 49.16223666 49.31935414 49.43237305 43.70727539 C49.47348194 41.67097885 49.49915299 39.63432894 49.51171875 37.59765625 C49.52966995 36.51995468 49.54762115 35.44225311 49.56611633 34.33189392 C49.62005446 30.90880174 49.65406276 27.4858477 49.6875 24.0625 C49.72068756 21.73370481 49.75517854 19.4049278 49.79101562 17.07617188 C49.87821165 11.38409649 49.93842351 5.6926402 50 0 C57.26 0 64.52 0 72 0 C72.37165642 58.5152386 72.37165642 58.5152386 62.046875 69.28125 C53.25798698 76.66123231 42.19144499 78.82517567 31 78 C21.69753304 76.87071721 14.28884627 74.16229714 8 67 C7.29875 66.21625 6.5975 65.4325 5.875 64.625 C1.52115289 58.52961405 -0.13221459 52.22476137 -0.11352539 44.8425293 C-0.11344986 43.84186935 -0.11337433 42.84120941 -0.11329651 41.81022644 C-0.10813522 40.7423439 -0.10297394 39.67446136 -0.09765625 38.57421875 C-0.0962413 37.47149124 -0.09482635 36.36876373 -0.09336853 35.23262024 C-0.08778004 31.71755233 -0.07522959 28.20254859 -0.0625 24.6875 C-0.05748352 22.30143321 -0.05292087 19.91536543 -0.04882812 17.52929688 C-0.03781437 11.68617327 -0.02055758 5.84309751 0 0 Z " fill="#F74241" transform="translate(111,604)"/>
<path d="M0 0 C21.29518686 -2.70940489 21.29518686 -2.70940489 27.21533203 1.62011719 C30.69884461 5.63143471 33.03594562 10.20302813 35.04638672 15.09887695 C36.085111 17.16967725 37.28827524 18.45739774 39 20 C40.60561826 17.60512849 42.20953407 15.20914587 43.8125 12.8125 C44.26431641 12.13896484 44.71613281 11.46542969 45.18164062 10.77148438 C45.62314453 10.11083984 46.06464844 9.45019531 46.51953125 8.76953125 C46.92276611 8.16729736 47.32600098 7.56506348 47.74145508 6.94458008 C49.10400294 4.9270723 49.10400294 4.9270723 50.30859375 2.29492188 C52 0 52 0 54.54370117 -0.56762695 C55.53345947 -0.54144287 56.52321777 -0.51525879 57.54296875 -0.48828125 C58.61611328 -0.47216797 59.68925781 -0.45605469 60.79492188 -0.43945312 C61.91447266 -0.39755859 63.03402344 -0.35566406 64.1875 -0.3125 C65.31865234 -0.28994141 66.44980469 -0.26738281 67.61523438 -0.24414062 C70.41147976 -0.18514811 73.20508097 -0.1028824 76 0 C73.26637031 4.89363629 70.36071048 9.5953015 67.234375 14.24609375 C66.57698334 15.23005882 66.57698334 15.23005882 65.90631104 16.23390198 C64.52305824 18.30323915 63.13659106 20.3703986 61.75 22.4375 C60.80447301 23.85076798 59.85915851 25.26417815 58.9140625 26.67773438 C56.61182618 30.12013686 54.306707 33.56059183 52 37 C54.81310567 42.20562092 57.70122992 47.22626203 61.125 52.0625 C61.89736847 53.16389911 62.66949145 54.26547039 63.44140625 55.3671875 C63.84891113 55.9456543 64.25641602 56.52412109 64.67626953 57.12011719 C67.15064851 60.63408217 69.61038832 64.1579694 72.0625 67.6875 C72.55186035 68.38302979 73.0412207 69.07855957 73.54541016 69.79516602 C77 74.77311256 77 74.77311256 77 77 C55.56801544 78.62571945 55.56801544 78.62571945 50.09375 75.16015625 C48.32260281 72.51596716 47.18097028 69.95242569 46 67 C44.7188724 64.97976033 43.40630319 62.97910314 42.0625 61 C39 56.26153846 39 56.26153846 39 54 C38.34 54 37.68 54 37 54 C36.76410156 54.63292969 36.52820313 55.26585937 36.28515625 55.91796875 C29.43689148 72.34131497 29.43689148 72.34131497 23 77 C14.90487591 79.23137353 6.21860145 78.11551783 -2 77 C2.95970078 69.12340203 8.06469826 61.35458226 13.25 53.625 C14.65213667 51.53458822 16.05321841 49.44346837 17.453125 47.3515625 C18.06317383 46.44229004 18.67322266 45.53301758 19.30175781 44.59619141 C20.93469493 42.09983527 22.48376127 39.56857095 24 37 C19.9144802 30.86553428 15.82412128 24.73448055 11.71875 18.61328125 C10.3125 16.51302083 8.90625 14.41276042 7.5 12.3125 C6.77296875 11.23033203 6.0459375 10.14816406 5.296875 9.03320312 C4.61109375 8.00775391 3.9253125 6.98230469 3.21875 5.92578125 C2.59935547 5.00192627 1.97996094 4.07807129 1.34179688 3.1262207 C0 1 0 1 0 0 Z " fill="#F74241" transform="translate(610,604)"/>
<path d="M0 0 C-0.62900369 3.6054232 -1.58837998 6.84919935 -2.9375 10.25 C-3.27652344 11.12140625 -3.61554687 11.9928125 -3.96484375 12.890625 C-5 15 -5 15 -7 16 C-8.39203186 15.57283142 -9.76447563 15.08134404 -11.125 14.5625 C-15.9377348 13.03565285 -20.36855173 12.66083347 -25.375 12.625 C-26.06480957 12.61154541 -26.75461914 12.59809082 -27.46533203 12.58422852 C-30.5682888 12.61118104 -32.72373829 12.8478368 -35.4609375 14.35546875 C-37.27261522 15.95466795 -37.27261522 15.95466795 -37.25 18.6875 C-37.12625 19.8321875 -37.12625 19.8321875 -37 21 C-32.28088424 23.62338246 -27.90555605 24.85584228 -22.6875 25.9375 C-13.67080602 27.94625069 -5.6139025 30.22862363 1 37 C4.26575889 42.55179012 4.73988113 47.71607811 4 54 C1.65975259 61.39025497 -1.93890118 66.13241255 -8.6875 69.75 C-22.41696799 76.06636767 -36.74081343 74.59109124 -51 71 C-53.91185942 69.86693336 -56.31882827 68.61987459 -59 67 C-58.34496718 62.94180817 -57.05440879 59.46028718 -55.4375 55.6875 C-54.75494141 54.08455078 -54.75494141 54.08455078 -54.05859375 52.44921875 C-53.53458984 51.23685547 -53.53458984 51.23685547 -53 50 C-51.67935547 50.52400391 -51.67935547 50.52400391 -50.33203125 51.05859375 C-49.17058594 51.51363281 -48.00914062 51.96867188 -46.8125 52.4375 C-45.66394531 52.88996094 -44.51539063 53.34242188 -43.33203125 53.80859375 C-38.46879153 55.54750127 -34.15715758 56.17106391 -29 56.25 C-27.989375 56.27578125 -26.97875 56.3015625 -25.9375 56.328125 C-22.55237985 55.94999988 -20.70106444 55.04773839 -18 53 C-17.16666667 50.5 -17.16666667 50.5 -18 48 C-22.46404091 44.45259993 -27.74843035 43.8129562 -33.1875 42.6875 C-51.22571131 38.64399994 -51.22571131 38.64399994 -56.5625 30.75 C-59.26703851 24.90304533 -59.71668717 18.55933886 -58 12.375 C-55.34439206 5.61635817 -50.97973384 0.62269335 -44.375 -2.4375 C-31.17051093 -7.75266437 -12.46249713 -6.65052051 0 0 Z " fill="#F74241" transform="translate(792,608)"/>
<path d="M0 0 C4.06017819 2.88309901 6.42012729 5.56324505 9.62890625 9.57421875 C5.33890625 13.53421875 1.04890625 17.49421875 -3.37109375 21.57421875 C-5.10359375 20.18203125 -5.10359375 20.18203125 -6.87109375 18.76171875 C-13.44418719 13.89532326 -18.74269107 11.81499087 -26.9765625 13.00390625 C-31.92818642 14.18324898 -35.18865892 16.29591082 -38.68359375 20.07421875 C-41.93092903 26.80943267 -43.24284332 33.71212606 -41.24609375 41.01171875 C-39.24426304 46.42792739 -36.82305737 49.92920857 -31.80859375 52.88671875 C-26.14901881 55.46883394 -19.98076031 55.77336222 -14.06640625 53.80859375 C-10.08741064 51.91669395 -6.69106803 49.47919624 -3.37109375 46.57421875 C-2.93539062 47.02152344 -2.4996875 47.46882812 -2.05078125 47.9296875 C1.68240198 51.71943411 5.48491925 55.23881458 9.62890625 58.57421875 C6.83287306 65.06101574 0.81510857 68.26499573 -5.49609375 70.88671875 C-16.75574012 75.00443465 -29.26980006 74.8251225 -40.41796875 70.3515625 C-51.8980703 64.99703753 -57.37069502 58.17507602 -62.62109375 46.88671875 C-66.1041976 36.14714855 -64.61060208 25.86262059 -60.37109375 15.57421875 C-54.93595719 5.74471646 -46.0067478 -1.17446732 -35.37109375 -4.42578125 C-34.48357422 -4.71195313 -34.48357422 -4.71195313 -33.578125 -5.00390625 C-22.26264675 -7.16686492 -9.92415847 -5.96757469 0 0 Z " fill="#F74241" transform="translate(91.37109375,608.42578125)"/>
<path d="M0 0 C23.1 0 46.2 0 70 0 C70 5.61 70 11.22 70 17 C62.08 17 54.16 17 46 17 C46 36.8 46 56.6 46 77 C39.07 77 32.14 77 25 77 C25 57.2 25 37.4 25 17 C16.75 17 8.5 17 0 17 C0 11.39 0 5.78 0 0 Z " fill="#F74241" transform="translate(451,604)"/>
<path d="M0 0 C6.93 0 13.86 0 21 0 C21 25.41 21 50.82 21 77 C14.07 77 7.14 77 0 77 C0 51.59 0 26.18 0 0 Z " fill="#F74241" transform="translate(699,604)"/>
</svg>
