<?xml version="1.0" encoding="UTF-8"?>
<svg version="1.1" xmlns="http://www.w3.org/2000/svg" width="827" height="827">
<path d="M0 0 C1.17040329 -0.00974854 2.34080658 -0.01949707 3.54667664 -0.02954102 C50.39820646 -0.33973773 50.39820646 -0.33973773 71.47949219 3.6484375 C74.69525146 4.25446514 77.91754738 4.78199425 81.1484375 5.30078125 C121.72213233 12.1054415 160.7472082 28.44982077 193.609375 53.23828125 C194.14965332 53.645625 194.68993164 54.05296875 195.24658203 54.47265625 C204.17820676 61.24467888 212.51701431 68.48713043 220.609375 76.23828125 C221.73472656 77.30175781 221.73472656 77.30175781 222.8828125 78.38671875 C227.47043285 82.82927601 231.49646859 87.6321632 235.48828125 92.61328125 C237.33216302 94.89521228 239.2275388 97.10482507 241.171875 99.30078125 C243.609375 102.23828125 243.609375 102.23828125 243.609375 104.23828125 C244.269375 104.23828125 244.929375 104.23828125 245.609375 104.23828125 C246.125 105.18703125 246.640625 106.13578125 247.171875 107.11328125 C248.93093284 110.19782634 250.86788452 113.09233972 252.921875 115.98828125 C262.72690581 129.82943465 262.72690581 129.82943465 265.609375 137.23828125 C266.65581188 139.35048234 267.72009192 141.45388788 268.796875 143.55078125 C280.91019961 167.68267174 289.59552446 192.86152398 294.13769531 219.49804688 C294.58562818 222.10032351 295.07013414 224.69247916 295.5703125 227.28515625 C296.8469899 234.03411477 297.75366043 240.36573838 297.609375 247.23828125 C297.01213623 247.21209717 296.41489746 247.18591309 295.79956055 247.15893555 C277.6788807 246.47458059 260.84612136 247.48642514 245.609375 258.23828125 C244.34753019 258.98289462 243.07727266 259.71354306 241.796875 260.42578125 C239.04235296 261.9920781 236.32300072 263.60273434 233.609375 265.23828125 C233.00351562 264.8515625 232.39765625 264.46484375 231.7734375 264.06640625 C225.88844127 260.40865475 220.09717301 257.63304199 213.609375 255.23828125 C211.6713139 254.48973237 209.73385951 253.73961158 207.796875 252.98828125 C206.70503906 252.57191406 205.61320312 252.15554688 204.48828125 251.7265625 C201.53006409 250.59726172 198.58275266 249.4419439 195.63671875 248.28125 C186.51097763 244.71070681 177.53885145 241.45131511 168.015625 239.1015625 C164.66134935 238.25145365 161.40050643 237.24220369 158.109375 236.17578125 C152.48866995 234.41761385 146.87752005 233.24220682 141.09375 232.15625 C134.35699249 230.83485722 127.70511948 229.09512813 121.05566406 227.39501953 C114.21274367 225.69692894 107.42892077 224.60522698 100.43408203 223.73657227 C94.19037432 222.92312867 88.00019094 221.81141849 81.796875 220.73828125 C62.67169029 217.49608344 44.00302338 215.84572173 24.609375 215.23828125 C24.93421875 213.31242187 24.93421875 213.31242187 25.265625 211.34765625 C28.05413416 193.97411816 31.06255883 173.62682256 23.296875 157.17578125 C22.82483643 156.13707886 22.82483643 156.13707886 22.34326172 155.07739258 C20.20723376 150.40902267 17.94100476 145.8118627 15.609375 141.23828125 C15.279375 140.24828125 14.949375 139.25828125 14.609375 138.23828125 C13.949375 138.23828125 13.289375 138.23828125 12.609375 138.23828125 C12.114375 137.26890625 11.619375 136.29953125 11.109375 135.30078125 C-1.98579056 112.47646099 -32.63782213 96.04581388 -57.390625 89.23828125 C-92.6169074 80.93115004 -128.40619031 85.10804981 -159.390625 104.23828125 C-160.90700053 105.03845335 -162.42737679 105.83112874 -163.953125 106.61328125 C-172.39883443 111.28437194 -187.03191076 120.52085278 -191.390625 129.23828125 C-192.050625 129.23828125 -192.710625 129.23828125 -193.390625 129.23828125 C-193.65875 129.79515625 -193.926875 130.35203125 -194.203125 130.92578125 C-196.07698803 134.57488294 -197.77637304 137.63936004 -200.73828125 140.52734375 C-203.4075261 143.25555572 -205.42415927 145.9893717 -207.515625 149.17578125 C-208.17820313 150.17480469 -208.84078125 151.17382812 -209.5234375 152.203125 C-211.45252993 155.22822359 -211.45252993 155.22822359 -213.0078125 158.5546875 C-214.390625 161.23828125 -214.390625 161.23828125 -216.390625 162.23828125 C-216.679375 163.10453125 -216.968125 163.97078125 -217.265625 164.86328125 C-218.28555762 167.9230791 -219.61315133 170.31164324 -221.25390625 173.0625 C-223.26350316 176.90904804 -224.66251483 181.00105852 -226.17578125 185.0625 C-227.14005944 187.58326581 -228.17116636 189.99184751 -229.328125 192.42578125 C-231.76108131 197.7385634 -233.48184362 203.30622933 -235.28491211 208.85620117 C-237.24313059 214.88233532 -237.24313059 214.88233532 -238.44921875 217.79296875 C-239.99240958 221.80142293 -240.84296078 226.00092015 -241.80273438 230.1796875 C-244.54761304 241.66224766 -244.54761304 241.66224766 -248.0625 244.66796875 C-251.57942275 245.52949681 -255.0475929 245.44580672 -258.640625 245.36328125 C-259.38570312 245.35425781 -260.13078125 245.34523438 -260.8984375 245.3359375 C-262.72930559 245.31246483 -264.56000738 245.2765965 -266.390625 245.23828125 C-265.89679853 235.04176106 -264.29364928 225.27719107 -262.265625 215.30078125 C-262.112005 214.53570251 -261.95838501 213.77062378 -261.80010986 212.98236084 C-259.1938709 200.08892005 -255.90030388 187.61026637 -251.390625 175.23828125 C-250.96007812 174.03171875 -250.52953125 172.82515625 -250.0859375 171.58203125 C-248.91785646 168.43661042 -247.679431 165.33607399 -246.390625 162.23828125 C-246.14376953 161.63918945 -245.89691406 161.04009766 -245.64257812 160.42285156 C-238.21124191 142.49861398 -229.30704067 124.2862737 -216.93359375 109.23828125 C-215.32423974 107.24085066 -215.32423974 107.24085066 -214.01171875 104.875 C-212.04544723 101.67684753 -209.70895608 98.88629894 -207.265625 96.05078125 C-206.77698975 95.47980713 -206.28835449 94.90883301 -205.78491211 94.32055664 C-204.32576834 92.62150807 -202.85984251 90.92862187 -201.390625 89.23828125 C-200.63136719 88.36429687 -199.87210937 87.4903125 -199.08984375 86.58984375 C-182.89233883 68.28992046 -164.31890925 52.88758247 -143.390625 40.23828125 C-142.4728125 39.67753906 -141.555 39.11679688 -140.609375 38.5390625 C-129.31963309 31.78646149 -117.67904979 25.84895049 -105.3203125 21.31640625 C-102.7225768 20.36043951 -100.18801995 19.31899426 -97.640625 18.23828125 C-91.02922307 15.569954 -84.14544937 13.74322349 -77.296875 11.79345703 C-74.97749758 11.11796212 -72.68654225 10.36417199 -70.390625 9.61328125 C-63.21173945 7.4715804 -55.77472016 6.41968296 -48.390625 5.23828125 C-47.3505127 5.07150879 -46.31040039 4.90473633 -45.23876953 4.73291016 C-41.81113881 4.18700803 -38.38245718 3.64838703 -34.953125 3.11328125 C-33.86386719 2.94256104 -32.77460938 2.77184082 -31.65234375 2.59594727 C-30.59789062 2.43408936 -29.5434375 2.27223145 -28.45703125 2.10546875 C-27.52834229 1.96222168 -26.59965332 1.81897461 -25.64282227 1.67138672 C-17.07566827 0.53047153 -8.64278049 0.05950197 0 0 Z " fill="#FEFEFE" transform="translate(398.390625,206.76171875)"/>
<path d="M0 0 C0 36.3 0 72.6 0 110 C-16.5 110.33 -33 110.66 -50 111 C-50.79628735 121.71939295 -50.79628735 121.71939295 -46.3203125 130.72265625 C-40.03969577 135.58840877 -33.75459652 135.97602907 -26 136 C-25.81566406 136.67546875 -25.63132812 137.3509375 -25.44140625 138.046875 C-23.71980285 143.36107537 -23.71980285 143.36107537 -20.1875 147.5546875 C-13.29930014 151.02411169 -8.17143984 150 0 150 C0 160.56 0 171.12 0 182 C-111.21 182 -222.42 182 -337 182 C-337 76.36363636 -337 76.36363636 -329.5 63 C-328.9328125 61.96875 -328.365625 60.9375 -327.78125 59.875 C-319.70216297 46.83507006 -306.66203183 36.68021255 -292 32.3125 C-290.99066406 31.99442383 -290.99066406 31.99442383 -289.9609375 31.66992188 C-273.08226424 26.50530853 -255.64783471 29.03694321 -240 37 C-234.02248634 40.3802801 -228.5687479 43.84173624 -224 49 C-223.34 49.66 -222.68 50.32 -222 51 C-217.96383993 51 -215.49168551 49.77989399 -212.3125 47.5 C-186.62157444 29.54212896 -151.51599923 20.06976296 -121.34814453 13.51757812 C-119.0988289 13.02178387 -116.86000628 12.49374417 -114.62109375 11.953125 C-101.54446901 8.83688575 -88.3062127 6.85746175 -75 5 C-73.05843018 4.72857178 -73.05843018 4.72857178 -71.07763672 4.45166016 C-47.24222189 1.15498871 -24.12251326 0 0 0 Z M-296 60 C-296.71671875 60.48984375 -297.4334375 60.9796875 -298.171875 61.484375 C-302.13131529 64.28777433 -304.79389276 66.58778552 -307 71 C-307.66 71.86625 -308.32 72.7325 -309 73.625 C-314.79598528 83.40572516 -315.54475628 94.90556377 -313.15625 105.875 C-310.03455779 117.03490954 -304.29734045 125.65112685 -294.3046875 131.75390625 C-283.53290359 137.57797247 -273.51785183 140.05848086 -261.25 137.09375 C-248.79209576 132.90531668 -239.28218648 125.73015307 -233 114 C-227.9159588 100.00238008 -228.16510917 87.87162725 -234 74 C-234.99 72.515 -234.99 72.515 -236 71 C-236.66 71 -237.32 71 -238 71 C-238.35384766 69.88818359 -238.35384766 69.88818359 -238.71484375 68.75390625 C-241.93961425 61.84368375 -250.00194696 57.58314089 -256.796875 54.69140625 C-270.10567189 50.51470935 -284.71290957 51.91239977 -296 60 Z " fill="#FFFEFE" transform="translate(407,437)"/>
<path d="M0 0 C41.28193342 0 81.43777893 5.84945965 121.38330078 16.32421875 C123.76969725 16.94052267 126.16018902 17.52628221 128.55859375 18.09375 C136.10797504 19.88460346 143.35779504 22.07580133 150.6328125 24.78125 C153.9175865 25.97017052 157.21461835 27.00446685 160.5625 28 C171.67338995 31.3815752 181.97230755 35.8267662 192.2734375 41.1328125 C194.70314308 42.37715737 197.09861737 43.46575688 199.62109375 44.53515625 C203.79267585 46.3436456 207.56779382 48.63307433 211.44921875 50.98828125 C213.89443494 52.25925935 213.89443494 52.25925935 216.0703125 51.40234375 C218.26020012 49.8109072 220.21436315 48.104533 222.1875 46.25 C235.43740964 34.42962972 251.96940823 28.56443714 269.84765625 28.78515625 C288.15316155 30.03274335 305.83411695 37.5142494 318.453125 51.0703125 C347.79539452 87.67405276 335 138.19898892 335 182 C224.45 182 113.9 182 0 182 C0 171.77 0 161.54 0 151 C4.29 150.67 8.58 150.34 13 150 C19.65989911 147.40635666 19.65989911 147.40635666 24 142 C24.68157306 140.00503068 25.34974862 138.00539711 26 136 C26.94101562 135.90203125 27.88203125 135.8040625 28.8515625 135.703125 C38.23425251 134.76646241 38.23425251 134.76646241 46 130 C50.36627574 124.77754276 50.36627574 124.77754276 52 111 C34.84 110.67 17.68 110.34 0 110 C0 73.7 0 37.4 0 0 Z M234.75390625 66.3125 C227.36936127 75.45980733 223.40698923 85.41913922 223.68359375 97.2578125 C224.68135461 105.90507331 227.70264144 114.09781163 233 121 C233.55300781 121.75023437 234.10601563 122.50046875 234.67578125 123.2734375 C240.97355464 131.12283622 250.0436511 136.28338812 260 138 C273.83388121 138.93357481 283.95294899 136.53335078 295 128 C304.08685892 119.53129474 309.14654237 110.44870955 310 98 C310.28794366 87.56757954 308.43314584 79.92232207 303 71 C302.34 71 301.68 71 301 71 C300.90460938 70.40960938 300.80921875 69.81921875 300.7109375 69.2109375 C298.51842143 62.39245346 289.5710463 58.37767055 283.7109375 55.1640625 C266.81797664 47.91031274 247.05767525 53.64496739 234.75390625 66.3125 Z " fill="#FFFFFF" transform="translate(422,437)"/>
<path d="M0 0 C4.76644869 4.14742938 8.64296349 8.14641525 11.46875 13.84375 C11.78972656 14.48054688 12.11070312 15.11734375 12.44140625 15.7734375 C17.05633718 26.27380665 17.59352015 37.96337772 14.40625 48.96875 C9.69976784 60.32199108 9.69976784 60.32199108 6.40625 61.96875 C5.973125 62.7525 5.54 63.53625 5.09375 64.34375 C3.16406541 67.34548158 1.4805208 68.24415906 -1.59375 69.96875 C-2.19445312 70.61328125 -2.79515625 71.2578125 -3.4140625 71.921875 C-5.87560314 74.2334293 -7.85024831 75.07532709 -11.03125 76.15625 C-11.95808594 76.47980469 -12.88492188 76.80335938 -13.83984375 77.13671875 C-25.62862441 80.69843546 -38.36425502 80.0484199 -49.59375 74.96875 C-56.52992776 70.94416419 -62.64294905 66.07018968 -66.59375 58.96875 C-66.59375 58.30875 -66.59375 57.64875 -66.59375 56.96875 C-67.25375 56.96875 -67.91375 56.96875 -68.59375 56.96875 C-73.57463651 41.29229917 -74.80382906 26.92425976 -67.4609375 11.60546875 C-67.17476562 11.06535156 -66.88859375 10.52523438 -66.59375 9.96875 C-65.93375 9.96875 -65.27375 9.96875 -64.59375 9.96875 C-64.26375 8.64875 -63.93375 7.32875 -63.59375 5.96875 C-62.93375 5.96875 -62.27375 5.96875 -61.59375 5.96875 C-61.34625 5.39125 -61.09875 4.81375 -60.84375 4.21875 C-56.69654827 -3.24621312 -47.5467047 -7.05089039 -39.65625 -9.40625 C-25.09933873 -12.37828605 -11.59656932 -9.08165067 0 0 Z " fill="#FFFFFF" transform="translate(287.59375,355.03125)"/>
</svg>
